PathFileType	4	(X/Y/Z)	/Users/niels/Desktop/University/Third Semester/Perception and Action/Exam/Gymnastics Motion Tracking/Code for Gym Tracking/Analyzed Data/Webcam_Backflip/id6_4_baseline_Sports2D/id6_4_baseline_Sports2D_px_person00.trc
DataRate	CameraRate	NumFrames	NumMarkers	Units	OrigDataRate	OrigDataStartFrame	OrigNumFrames
29.81132075471698	29.81132075471698	7	22	m	29.81132075471698	99	159
Frame#	Time	Hip			RHip			RKnee			RAnkle			RBigToe			RSmallToe			RHeel			LHip			LKnee			LAnkle			LBigToe			LSmallToe			LHeel			Neck			Head			Nose			RShoulder			RElbow			RWrist			LShoulder			LElbow			LWrist		
		X1	Y1	Z1	X2	Y2	Z2	X3	Y3	Z3	X4	Y4	Z4	X5	Y5	Z5	X6	Y6	Z6	X7	Y7	Z7	X8	Y8	Z8	X9	Y9	Z9	X10	Y10	Z10	X11	Y11	Z11	X12	Y12	Z12	X13	Y13	Z13	X14	Y14	Z14	X15	Y15	Z15	X16	Y16	Z16	X17	Y17	Z17	X18	Y18	Z18	X19	Y19	Z19	X20	Y20	Z20	X21	Y21	Z21	X22	Y22	Z22
99	3.320886075949367	0.933192528076679	-0.4775305742231577	0.0	0.9352423457996373	-0.4769765107795624	0.0	0.9758696937611181	-0.5707810134673009	0.0	0.9696227472965053	-0.6720492916452998	0.0	1.008685236057042	-0.6970284599653349	0.0	0.9993327478816532	-0.6997690609698313	0.0	0.960500311528242	-0.6910036873251385	0.0	0.9305580853045625	-0.4753823534729311	0.0	0.9552284677831618	-0.5746164953746946	0.0	0.9471337794674999	-0.6704106970855703	0.0	0.9818145545484532	-0.6936859932398219	0.0	0.9731571341269375	-0.6907670144121919	0.0	0.9392112884407058	-0.6871714442928127	0.0	0.9322820619029241	-0.35156300460125955	0.0	0.9640416346136081	-0.2899821594343009	0.0	0.9660800194047592	-0.3272985931771706	0.0	0.9229292605213025	-0.3625114546415417	0.0	0.9195391746185682	-0.4271917178152946	0.0	0.9547361503080536	-0.4776270822373626	0.0	0.9218003255959839	-0.36506851805617824	0.0	0.9226099489214491	-0.4242317189994043	0.0	0.9470994173629282	-0.4719923536174154	0.0
100	3.354430379746835	0.9307028151250263	-0.4623804959379057	0.0	0.9320924717626738	-0.46242731328610964	0.0	0.9722002515272123	-0.5572347671790298	0.0	0.9633377398154424	-0.6588612250597735	0.0	1.0020977823602089	-0.6872976635336686	0.0	0.9926702315809743	-0.689493013689197	0.0	0.9536277821711209	-0.6769976412544426	0.0	0.9287613031726213	-0.4608404050366232	0.0	0.9548602826532012	-0.5601656177769011	0.0	0.9477446230999964	-0.656631690668164	0.0	0.9824296709673382	-0.6825636562918311	0.0	0.974101819149021	-0.6791961945844719	0.0	0.9394637191948264	-0.6731336131040592	0.0	0.9302385226884653	-0.33714572349955524	0.0	0.9646147471903018	-0.276601502739664	0.0	0.9647954409807014	-0.3143071307563714	0.0	0.9204966844934666	-0.34664300699433087	0.0	0.9158390550102433	-0.41082863935046865	0.0	0.9515432604617754	-0.4615420386256502	0.0	0.9206719608192642	-0.3503463339236527	0.0	0.9202850785926135	-0.4091165502917079	0.0	0.9464118232652118	-0.45718673108333346	0.0
101	3.3879746835443036	0.928380040869386	-0.45138388637778126	0.0	0.928901268755778	-0.4519157180648766	0.0	0.9688973258946872	-0.5475198302610995	0.0	0.9578906800648505	-0.6493688644115304	0.0	0.9950822858484586	-0.6815307856019085	0.0	0.9856606136546326	-0.6830272608052235	0.0	0.9476781689624177	-0.6665029985221302	0.0	0.9271059291080099	-0.45041466524882934	0.0	0.9539451577670194	-0.5498398919987615	0.0	0.9467052753563434	-0.646807624321335	0.0	0.9807044689232707	-0.6755166383850496	0.0	0.9727739019146691	-0.6718357943682893	0.0	0.9380683263585959	-0.6626730062841697	0.0	0.9281366775007582	-0.3263210737155233	0.0	0.9648030860995617	-0.2667550227453706	0.0	0.9631874933072545	-0.3051168543752348	0.0	0.9178760132140503	-0.3348770457482287	0.0	0.9118944237542654	-0.3987454702000511	0.0	0.9479973737353782	-0.4497828239611618	0.0	0.9200217426658416	-0.3395386397605797	0.0	0.918877296430373	-0.39850163807728584	0.0	0.9472184258672289	-0.4460580925303874	0.0
102	3.421518987341772	0.9262742250166041	-0.4446570963996564	0.0	0.9259515184073787	-0.4455376543363446	0.0	0.9662230955268808	-0.541479817802058	0.0	0.953892713352066	-0.6433025240920547	0.0	0.988397418468735	-0.6790551375834838	0.0	0.9792229576571282	-0.679869947691017	0.0	0.9434446429970698	-0.6596914205948493	0.0	0.9253994168926567	-0.44419270537564953	0.0	0.9518832695480519	-0.5436542837190711	0.0	0.9435349335673172	-0.6408537055321167	0.0	0.9760335636772698	-0.6722917547216398	0.0	0.9684920231876786	-0.6684097835062306	0.0	0.9347925137938554	-0.6558150588172952	0.0	0.925979149068906	-0.3189975384166205	0.0	0.9643428910692976	-0.26018363197698846	0.0	0.9612124696664665	-0.2993022561387911	0.0	0.9150142461981536	-0.32713017260784183	0.0	0.9076353817560795	-0.3909553143987293	0.0	0.9436098406443926	-0.44240521371589786	0.0	0.9195474616582388	-0.33252647245515665	0.0	0.9186587962689834	-0.39230664386595304	0.0	0.9497034171244303	-0.4381577649049167	0.0
103	3.4550632911392403	0.9244422074696057	-0.4422949431142	0.0	0.9234665693923049	-0.44339356885312997	0.0	0.9644335542940267	-0.5389126303762898	0.0	0.9515910649836855	-0.6403240481056599	0.0	0.9826853879340275	-0.6791485479805627	0.0	0.9740833567450209	-0.6794625497264188	0.0	0.941262336051694	-0.6564374745995556	0.0	0.9234765909227904	-0.4422798843109711	0.0	0.9483881944359492	-0.54146355508297	0.0	0.9381252862249739	-0.6385845908006059	0.0	0.9684793638811119	-0.6725868192434069	0.0	0.9612333415517756	-0.6685740523499644	0.0	0.929649809729139	-0.6525289136248793	0.0	0.923826731249078	-0.315177556885907	0.0	0.9630878560344757	-0.2567498121239523	0.0	0.9589544828043219	-0.2965630852174504	0.0	0.9119638058161713	-0.32326737780488374	0.0	0.9030673341622586	-0.38736516750426436	0.0	0.9380097338739104	-0.4394236982864965	0.0	0.9189643277397982	-0.3292118490947496	0.0	0.919658321500023	-0.3902098863042344	0.0	0.9537983045488689	-0.4330802776153639	0.0
104	3.488607594936709	0.922929981142125	-0.4442818958902043	0.0	0.9215589727295355	-0.4454693811288395	0.0	0.9636197481166571	-0.5396364679059988	0.0	0.9507260361162293	-0.640122079528172	0.0	0.9781815914212911	-0.6812036958259199	0.0	0.9704489706027003	-0.6812935952740765	0.0	0.9408213021459293	-0.6563250980430009	0.0	0.9213138531931045	-0.44465005880007885	0.0	0.9436383452102183	-0.5429916419470359	0.0	0.9308738778354925	-0.639741072263524	0.0	0.958686593874166	-0.6760681139571602	0.0	0.9515963562693942	-0.672028291373256	0.0	0.9229204028692629	-0.6527567534432931	0.0	0.9217426581155436	-0.3149599600491117	0.0	0.9610702252704367	-0.25645261658283636	0.0	0.9565460967157677	-0.29685172151687644	0.0	0.9088735166775652	-0.3232216639237171	0.0	0.8982404643874637	-0.38783525670871466	0.0	0.9310884525114688	-0.44079648747235856	0.0	0.9181010264933922	-0.32954209078128593	0.0	0.9214543429912053	-0.3916463618554292	0.0	0.9590489470504353	-0.4304294333110673	0.0
105	3.522151898734177	0.9216878892292952	-0.45045293824254384	0.0	0.920223709744776	-0.4516066530214086	0.0	0.963648090262992	-0.5436081223102129	0.0	0.9506547000590467	-0.6426194812486039	0.0	0.9747397622937001	-0.6849471173107003	0.0	0.9680477627617987	-0.685121060234937	0.0	0.9413226627447723	-0.6590427959041177	0.0	0.9189956974365475	-0.4510900069011259	0.0	0.9380847320008576	-0.5479885329023636	0.0	0.9225183581912413	-0.6440963229595743	0.0	0.9476174115623625	-0.6823508297819099	0.0	0.9405091548227933	-0.6784644808006718	0.0	0.9151092796605593	-0.6565138409173928	0.0	0.9197315644716968	-0.3184933957180412	0.0	0.9584407922544268	-0.25940212874726387	0.0	0.9540555588058236	-0.300309931288437	0.0	0.9059397283877798	-0.32707348794511454	0.0	0.8932498926392527	-0.39226745489074616	0.0	0.9230537600422625	-0.44649552957781546	0.0	0.9168694116449958	-0.33349819662730035	0.0	0.9232773803310576	-0.39601418919126885	0.0	0.9647124427667585	-0.42987690950509305	0.0
